C:\GBW_MyPrograms\KinderuniversiteitApp\Resultaten\Ellis_group\Model_Ellis\Model_Ellis_v1.mot
version=1
nRows=7
nColumns=31
inDegrees=yes
endheader
                time	         pelvis_tilt	           pelvis_tx	           pelvis_ty	       hip_flexion_r	        knee_angle_r	       ankle_angle_r	       hip_flexion_l	        knee_angle_l	       ankle_angle_l	    lumbar_extension	          arm_flex_r	          arm_flex_l	hamstrings_r/activation	bifemsh_r/activation	glut_max_r/activation	iliopsoas_r/activation	rect_fem_r/activation	  vasti_r/activation	gastroc_r/activation	 soleus_r/activation	tib_ant_r/activation	hamstrings_l/activation	bifemsh_l/activation	glut_max_l/activation	iliopsoas_l/activation	rect_fem_l/activation	  vasti_l/activation	gastroc_l/activation	 soleus_l/activation	tib_ant_l/activation	
          0.20223268	         -7.33765494	          0.27389350	          0.14131030	          7.83074951	         -2.20710476	        -36.12082956	         -3.05922157	         11.00305499	        -16.55416229	         -2.30455806	          1.79740231	          1.77685077	          0.58959059	          0.55769383	          0.32076874	          0.44837517	          0.19090844	          0.06206293	          0.17909658	          0.12145118	          0.58508663	          0.52227596	          0.43905198	          0.35382320	          0.43906495	          0.24749814	          0.28312344	          0.50861716	          0.27525491	          0.27001089	
          0.20425500	         -9.10916046	          0.27380111	          0.13822216	         10.71867986	         -2.95721259	        -33.93071511	         -4.59491397	         11.02900373	         -5.01815080	         -1.01269678	          1.20874055	          1.18857748	          0.60011445	          0.55721387	          0.33928512	          0.42818956	          0.17081530	          0.08691308	          0.17746671	          0.11911545	          0.58658184	          0.53724183	          0.43472729	          0.36497372	          0.41016772	          0.22705078	          0.28909719	          0.53432334	          0.30444897	          0.24273572	
          0.20627733	         -9.71643959	          0.27372118	          0.13731354	         11.17496715	         -2.96679148	        -32.27197695	         -4.67821861	         10.98277744	          0.14971081	         -0.67572105	          1.00687866	          0.98738794	          0.60614912	          0.55688799	          0.35807185	          0.40732538	          0.15144154	          0.10686922	          0.17519628	          0.11479092	          0.58632658	          0.54795846	          0.43012597	          0.37653932	          0.38319398	          0.20603781	          0.29483562	          0.54834093	          0.29966216	          0.22093441	
          0.20829966	         -9.94525361	          0.27367781	          0.13705363	         11.30361758	         -2.97590063	        -31.33735647	         -4.75398594	         10.95754321	          2.50314308	         -0.60115738	          0.96007186	          0.94112650	          0.61041705	          0.55662822	          0.37584481	          0.38671613	          0.13423630	          0.12336761	          0.17226020	          0.10892398	          0.58448709	          0.55622366	          0.42558132	          0.38619880	          0.35786916	          0.18572641	          0.30032381	          0.54961743	          0.28089453	          0.20462001	
          0.21032199	        -10.03504544	          0.27365735	          0.13694597	         11.33035803	         -2.98246206	        -30.70946180	         -4.78833665	         10.93923600	          3.66714233	         -0.59763093	          0.98338726	          0.96468692	          0.61418720	          0.55681939	          0.39206729	          0.36702612	          0.11925010	          0.13673426	          0.16876717	          0.10162825	          0.58072897	          0.56304922	          0.42140382	          0.39310860	          0.33399720	          0.16709152	          0.30550879	          0.53784440	          0.25622311	          0.19449597	
          0.21234431	        -10.07635896	          0.27364795	          0.13681864	         11.27370175	         -2.97963919	        -30.00518290	         -4.73035832	         10.92281928	          4.41079566	         -0.60254814	          1.04426905	          1.02592250	          0.61781201	          0.55771141	          0.40650935	          0.34874400	          0.10626356	          0.14705513	          0.16481781	          0.09289372	          0.57419964	          0.56868927	          0.41791341	          0.39675736	          0.31148038	          0.15079107	          0.31040574	          0.51953453	          0.22921678	          0.19192916	
          0.21436664	        -10.04324105	          0.27364096	          0.13746444	         11.41920509	         -3.12395119	        -29.18748213	          2.60995487	         -1.43244417	          5.45215255	         -0.61773553	          1.10854751	          1.09067943	          0.62124795	          0.55944529	          0.41887917	          0.33300167	          0.09502129	          0.15435797	          0.16055164	          0.08262879	          0.56311622	          0.57275933	          0.41541197	          0.39723981	          0.29015683	          0.13778197	          0.31544408	          0.49674690	          0.20122884	          0.19596528	
